<svg width="934" height="1199" viewBox="0 0 934 1199" fill="none" xmlns="http://www.w3.org/2000/svg">
<g clip-path="url(#clip0_102_2)">
<mask id="mask0_102_2" style="mask-type:luminance" maskUnits="userSpaceOnUse" x="0" y="0" width="934" height="1199">
<path d="M934 0H0V1199H934V0Z" fill="white"/>
</mask>
<g mask="url(#mask0_102_2)">
<path fill-rule="evenodd" clip-rule="evenodd" d="M608.388 279.81L934 280V302.512C907.833 305.514 858.911 324.5 836.5 374.551C831.18 386.432 813.949 424.845 789.243 479.92C709.92 656.75 553.545 1005.34 467 1199V1160.5L841.5 316.185C859.376 304.234 873.614 299.157 888.194 295.838C890.051 295.415 891.978 294.977 894 294.5H623.5V315C623.5 322 643.5 325.5 674.5 328C674.5 333.903 674.283 334.389 672.126 339.216C671.013 341.708 669.383 345.355 667 351.5L544.464 631.5V573.571C544.464 581.592 548.459 576.913 550.457 573.571C582.419 500.382 647.141 351.997 650.338 343.977C653.534 335.956 647.674 333.616 644.345 333.449H608.388V279.81Z" fill="url(#paint0_linear_102_2)"/>
<path d="M497.5 326.431V310.5C489.833 305.667 473.4 296.018 467 296.018V313.987C473 314 489.667 322.121 497.5 326.431Z" fill="url(#paint1_linear_102_2)"/>
<path d="M497.5 292.255V276.324C489.833 271.49 473.4 261.842 467 261.842V279.81C473 279.824 489.667 287.944 497.5 292.255Z" fill="url(#paint2_linear_102_2)"/>
<path d="M497.5 258.913V242.982C489.833 238.149 473.4 228.5 467 228.5V246.469C473 246.482 489.667 254.603 497.5 258.913Z" fill="url(#paint3_linear_102_2)"/>
<path d="M497.5 223.944V208.013C489.833 203.18 473.4 193.531 467 193.531V211.5C473 211.513 489.667 219.634 497.5 223.944Z" fill="url(#paint4_linear_102_2)"/>
<path d="M692.5 328C698.211 315.699 660.689 315.364 633.861 315.125H633.857C630.154 315.092 626.654 315.061 623.5 315C623.5 322 643.5 325.5 674.5 328C674.5 333.903 674.283 334.389 672.126 339.216C671.013 341.708 669.383 345.355 667 351.5L544.464 631.5V654.5C558.593 629.593 589.823 556.853 620.123 486.278L620.125 486.274C653.085 409.503 684.945 335.294 692.5 328Z" fill="url(#paint5_linear_102_2)"/>
<path d="M571.653 891L544.464 951.5L474.406 1129L466.906 1146.93L467 1160.5L841.5 316.185C836.364 319.798 830.609 324.167 824 329.5L768.048 454L767.8 454.551L715.017 572C714.944 572.168 715.094 571.829 715.017 572L680.409 649.007L673.221 665L673.203 665.04L614.696 795.226L571.653 891Z" fill="url(#paint6_linear_102_2)"/>
<path d="M474.406 1111.43L474.5 441H467L466.906 1134.82L474.406 1129V1111.43Z" fill="url(#paint7_linear_102_2)"/>
<path d="M466.906 1134.82V1146.93L474.406 1129L466.906 1134.82Z" fill="url(#paint8_linear_102_2)"/>
<path d="M467 341.5C565 340.3 590.667 347.833 590.5 351.5C560.667 354.167 493 369.6 467 410V441H474.5C487.181 423.981 508.5 395 528 384.5L527.028 951.5L474.406 1109.5V1129L544.464 951.5V908.5V726.5V700V654.5V631.5V573.571V380.07C560.778 372.551 599.998 358.314 626.366 361.522C627.565 351.897 611.218 343.809 602.894 340.969C602.894 340.969 555 326 515 326V157.92C506.67 163.837 497.203 168.226 486.939 170.7L486.934 170.701C480.694 172.205 473.688 173 467 173V193.531C473.4 193.531 489.833 203.18 497.5 208.013V223.944C489.667 219.634 473 211.513 467 211.5V228.5C473.4 228.5 489.833 238.149 497.5 242.982V258.913C489.667 254.603 473 246.482 467 246.469V261.842C473.4 261.842 489.833 271.49 497.5 276.324V292.255C489.667 287.944 473 279.824 467 279.81V296.018C473.4 296.018 489.833 305.667 497.5 310.5V326.431C489.667 322.121 473 314 467 313.987V341.5Z" fill="url(#paint9_linear_102_2)"/>
<path fill-rule="evenodd" clip-rule="evenodd" d="M467 0C513.668 0 551 38.7274 551 86.5C551 116.162 536.94 142.337 515 157.92C506.67 163.837 497.203 168.226 486.939 170.7L486.934 170.701C480.694 172.205 473.688 173 467 173V152.998C504.049 152.729 534 122.612 534 85.5C534 48.3876 504.049 18.2706 467 18.0018V0Z" fill="url(#paint10_linear_102_2)"/>
<path d="M467 152.998C504.049 152.729 534 122.612 534 85.5C534 48.3876 504.049 18.2706 467 18.0018V42.0028C490.794 42.2708 510 61.6425 510 85.5C510 109.357 490.794 128.729 467 128.997V152.998Z" fill="url(#paint11_linear_102_2)"/>
<path fill-rule="evenodd" clip-rule="evenodd" d="M510 85.5C510 109.357 490.794 128.729 467 128.997V111C480.807 111 492 99.8071 492 86C492 72.1929 480.807 61 467 61V42.0028C490.794 42.2708 510 61.6425 510 85.5Z" fill="url(#paint12_linear_102_2)"/>
<path d="M467 111C480.807 111 492 99.8071 492 86C492 72.1929 480.807 61 467 61V111Z" fill="#DE5D59"/>
<path d="M544.464 726.5L688.5 434C735 355.5 770.4 312.1 894 294.5C848.667 296.466 751.8 307.009 727 333.449C702.2 359.89 612.419 588.5 544.464 700V726.5Z" fill="#9BA8B1"/>
<path d="M623.5 294.5V315C626.654 315.061 630.154 315.092 633.857 315.125H633.861C660.689 315.364 698.211 315.699 692.5 328C684.945 335.294 653.085 409.503 620.125 486.274L620.123 486.278C589.823 556.853 558.593 629.593 544.464 654.5V700C612.419 588.5 702.2 359.89 727 333.449C735 306.609 661.333 296.3 623.5 294.5Z" fill="#D9DDE2"/>
<path d="M894 294.5H623.5C661.333 296.3 735 306.609 727 333.449C751.8 307.009 848.667 296.466 894 294.5Z" fill="#EBEFF6"/>
<path d="M824 329.5C772.5 340.372 746 380 738 416.5C736.393 419.112 735.431 420.674 734.921 420.538C734.161 420.336 734.402 416.37 735 406.5C709.864 437.564 707.04 441.054 692 475.5C717.5 454 747.885 436.457 755.5 416.5C770 378.5 804.5 363.5 824 329.5Z" fill="#D9DDE2"/>
<path d="M692 475.5C768.048 454 810.742 359 824 329.5C804.5 363.5 770 378.5 755.5 416.5C747.885 436.457 717.5 454 692 475.5Z" fill="#9BA8B1"/>
<path d="M644 591C714.5 571.5 753.871 485.539 767.8 454.551C762.126 462.856 751.712 473.754 740.913 485.054C725.513 501.168 709.332 518.101 705 529.5C695.5 554.5 674 573 644 591Z" fill="#9BA8B1"/>
<path d="M768.048 454C675.5 499 650 523.5 644 591C674 573 695.5 554.5 705 529.5C709.332 518.101 725.513 501.168 740.913 485.054C751.712 473.754 762.126 462.856 767.8 454.551L768.048 454Z" fill="#D9DDE2"/>
<path d="M601 671C643.54 659.623 703.294 597.327 715.017 572C708.731 578.789 697.75 587.487 686.876 596.1C672.655 607.364 658.617 618.483 655.5 625C648.644 639.335 642.5 645.5 601 671Z" fill="#9BA8B1"/>
<path d="M715.017 572C644 591 601 627 601 671C642.5 645.5 648.644 639.335 655.5 625C658.617 618.483 672.655 607.364 686.876 596.1C697.75 587.487 708.731 578.789 715.017 572Z" fill="#D9DDE2"/>
<path d="M680.409 649.007L690.299 627C690.231 627.046 690.159 627.092 690.084 627.139C677.892 635.038 651.953 652.342 644 659.5C650.914 655.171 671.098 649.698 680.409 649.007Z" fill="#9BA8B1"/>
<path d="M680.5 631.478C669.35 636.888 652.302 645.16 644 659.5C651.953 652.342 677.892 635.038 690.084 627.139C688.963 627.838 687.15 628.596 685.153 629.431L685.152 629.432C683.635 630.066 682.012 630.744 680.507 631.475L680.502 631.477L680.5 631.478Z" fill="#D9DDE2"/>
<path d="M626 745.5C647.14 723.016 664.881 683.557 673.203 665.04C667.134 666.456 662.279 674.42 655.846 684.974C647.189 699.174 635.675 718.062 614.5 732C588.444 749.151 571.654 769.928 559.703 784.715C553.586 792.285 548.737 798.285 544.563 801.426C548.761 798.296 555.376 794.555 563.246 790.104L563.248 790.103L563.851 789.762L563.852 789.761C582.355 779.296 607.707 764.956 626 745.5Z" fill="#9BA8B1"/>
<path d="M673.221 665C644 656.5 544.464 699 544.464 801.5L544.563 801.426C548.737 798.285 553.586 792.285 559.703 784.715C571.654 769.928 588.444 749.151 614.5 732C635.675 718.062 647.189 699.174 655.846 684.974C662.279 674.42 667.134 666.456 673.203 665.04L673.221 665Z" fill="#D9DDE2"/>
<path d="M621.763 779.5C608.651 804.667 574.835 861.8 544.464 889C566.526 890.625 594.855 837.539 611.943 801.149C612.897 799.118 613.815 797.14 614.696 795.226L621.763 779.5Z" fill="#9BA8B1"/>
<path d="M590.609 797.873C551.56 820.536 547.626 822.819 544.464 889C574.835 861.8 608.651 804.667 621.763 779.5C618.547 781.454 615.374 783.313 612.341 785.09L612.335 785.094C610.129 786.387 607.997 787.636 605.977 788.847C600.328 792.232 595.225 795.193 590.612 797.871L590.609 797.873Z" fill="#D9DDE2"/>
<path fill-rule="evenodd" clip-rule="evenodd" d="M614.696 795.226L621.763 779.5C619.844 783.854 617.457 789.223 614.696 795.226Z" fill="#D1DBE3"/>
<path d="M544.464 951.5L571.653 891C566.769 896.167 556.2 908.2 553 915C549.8 921.8 545.976 942.167 544.464 951.5Z" fill="#9BA8B1"/>
<path d="M544.464 908.5V951.5C545.976 942.167 549.8 921.8 553 915C556.2 908.2 566.769 896.167 571.653 891L544.464 908.5Z" fill="#D9DDE2"/>
<path fill-rule="evenodd" clip-rule="evenodd" d="M528 384.5L527.028 989.07L474.406 1109.5C476.353 1029.66 477.124 898.075 477.779 789.225C478.806 618.569 479.777 457.11 485.5 445.5C503 410 515.167 397.167 528 384.5Z" fill="url(#paint13_linear_102_2)"/>
<path d="M474.5 441L474.406 1109.5C476.353 1029.66 477.124 898.075 477.779 789.225C478.806 618.569 479.777 457.11 485.5 445.5C503 410 515.167 397.167 528 384.5C508.5 395 487.181 423.981 474.5 441Z" fill="#ECEAE0"/>
<path fill-rule="evenodd" clip-rule="evenodd" d="M590.5 351.5C589.317 351.401 587.755 351.263 585.87 351.096C559.084 348.722 467 340.562 467 358.5V410C493 369.6 560.667 354.167 590.5 351.5Z" fill="url(#paint14_linear_102_2)"/>
<path d="M590.5 351.5C590.667 347.833 565 340.3 467 341.5V358.5C467 340.562 559.084 348.722 585.87 351.096C587.755 351.263 589.317 351.401 590.5 351.5Z" fill="#ECEAE0"/>
<path d="M688.5 434L544.464 726.5V801.5C544.464 699 644 656.5 673.221 665L680.409 649.007C671.098 649.698 650.914 655.171 644 659.5C652.302 645.16 669.35 636.888 680.5 631.478L680.502 631.477L680.507 631.475C682.012 630.744 683.635 630.066 685.152 629.432L685.153 629.431C687.15 628.596 688.963 627.838 690.084 627.139L690.299 627L715.017 572C703.294 597.327 643.54 659.623 601 671C601 627 644 591 715.017 572L767.8 454.551C753.871 485.539 714.5 571.5 644 591C650 523.5 675.5 499 768.048 454L824 329.5C810.742 359 768.048 454 692 475.5C707.04 441.054 709.864 437.564 735 406.5C734.402 416.37 734.161 420.336 734.921 420.538C735.431 420.674 736.393 419.112 738 416.5C746 380 772.5 340.372 824 329.5C830.609 324.167 836.364 319.798 841.5 316.185C842.752 315.304 843.968 314.467 845.15 313.673C863.243 301.519 873.519 299.179 888.194 295.838C890.051 295.415 891.978 294.977 894 294.5C770.4 312.1 735 355.5 688.5 434Z" fill="url(#paint15_linear_102_2)"/>
<path d="M673.203 665.04C664.881 683.557 647.14 723.016 626 745.5C607.707 764.956 582.355 779.296 563.852 789.761L563.851 789.762L563.248 790.103L563.246 790.104C555.376 794.555 548.761 798.296 544.563 801.426L544.464 801.5V889C547.626 822.819 551.56 820.536 590.609 797.873L590.612 797.871C595.225 795.193 600.328 792.232 605.977 788.847C607.997 787.636 610.129 786.387 612.335 785.094L612.341 785.09C615.374 783.313 618.547 781.454 621.763 779.5L673.203 665.04Z" fill="url(#paint16_linear_102_2)"/>
<path d="M544.464 908.5L571.653 891L614.696 795.226C613.815 797.14 612.897 799.118 611.943 801.149C594.855 837.539 566.526 890.625 544.464 889V908.5Z" fill="url(#paint17_linear_102_2)"/>
<path fill-rule="evenodd" clip-rule="evenodd" d="M325.612 279.81L0 280V302.512C26.1667 305.514 75.0892 324.5 97.5 374.551C102.82 386.432 120.051 424.845 144.757 479.92C224.08 656.75 380.455 1005.34 467 1199V1160.5L92.5 316.185C74.6243 304.234 60.3858 299.157 45.8056 295.838C43.9491 295.415 42.0221 294.977 40 294.5H310.5V315C310.5 322 290.5 325.5 259.5 328C259.5 333.903 259.717 334.389 261.874 339.216C262.987 341.708 264.617 345.355 267 351.5L389.536 631.5V573.571C389.536 581.592 385.541 576.913 383.543 573.571C351.581 500.382 286.859 351.997 283.662 343.977C280.466 335.956 286.326 333.616 289.655 333.449H325.612V279.81Z" fill="url(#paint18_linear_102_2)"/>
<path d="M436.5 326.431V310.5C444.167 305.667 460.6 296.018 467 296.018V313.987C461 314 444.333 322.121 436.5 326.431Z" fill="url(#paint19_linear_102_2)"/>
<path d="M436.5 292.255V276.324C444.167 271.49 460.6 261.842 467 261.842V279.81C461 279.824 444.333 287.944 436.5 292.255Z" fill="url(#paint20_linear_102_2)"/>
<path d="M436.5 258.913V242.982C444.167 238.149 460.6 228.5 467 228.5V246.469C461 246.482 444.333 254.603 436.5 258.913Z" fill="url(#paint21_linear_102_2)"/>
<path d="M436.5 223.944V208.013C444.167 203.18 460.6 193.531 467 193.531V211.5C461 211.513 444.333 219.634 436.5 223.944Z" fill="url(#paint22_linear_102_2)"/>
<path d="M241.5 328C235.789 315.699 273.311 315.364 300.139 315.125H300.143C303.846 315.092 307.346 315.061 310.5 315C310.5 322 290.5 325.5 259.5 328C259.5 333.903 259.717 334.389 261.874 339.216C262.987 341.708 264.617 345.355 267 351.5L389.536 631.5V654.5C375.407 629.593 344.177 556.853 313.877 486.278L313.875 486.274C280.915 409.503 249.055 335.294 241.5 328Z" fill="url(#paint23_linear_102_2)"/>
<path d="M362.347 891L389.536 951.5L459.5 1129L466.906 1146.93L467 1160.5L92.5 316.185C97.6363 319.798 103.391 324.167 110 329.5L165.952 454L166.2 454.551L218.983 572C218.906 571.829 219.056 572.168 218.983 572L253.591 649.007L260.779 665L260.797 665.04L319.304 795.226L362.347 891Z" fill="url(#paint24_linear_102_2)"/>
<path d="M459.406 1111.43L459.5 441H467L466.906 1134.82L459.5 1129L459.406 1111.43Z" fill="url(#paint25_linear_102_2)"/>
<path d="M466.906 1134.82V1146.93L459.5 1129L466.906 1134.82Z" fill="url(#paint26_linear_102_2)"/>
<path d="M467 341.5C369 340.3 343.333 347.833 343.5 351.5C373.333 354.167 441 369.6 467 410V441H459.5C446.819 423.981 425.5 395 406 384.5L406.972 951.5L459.406 1109.5L459.5 1129L389.536 951.5V908.5V726.5V700V654.5V631.5V573.571V380.07C373.222 372.551 334.002 358.314 307.634 361.522C306.435 351.897 322.782 343.809 331.106 340.969C331.106 340.969 379 326 419 326V157.92C427.33 163.837 436.797 168.226 447.061 170.7L447.066 170.701C453.306 172.205 460.312 173 467 173V193.531C460.6 193.531 444.167 203.18 436.5 208.013V223.944C444.333 219.634 461 211.513 467 211.5V228.5C460.6 228.5 444.167 238.149 436.5 242.982V258.913C444.333 254.603 461 246.482 467 246.469V261.842C460.6 261.842 444.167 271.49 436.5 276.324V292.255C444.333 287.944 461 279.824 467 279.81V296.018C460.6 296.018 444.167 305.667 436.5 310.5V326.431C444.333 322.121 461 314 467 313.987V341.5Z" fill="url(#paint27_linear_102_2)"/>
<path fill-rule="evenodd" clip-rule="evenodd" d="M467 0C420.332 0 383 38.7274 383 86.5C383 116.162 397.06 142.337 419 157.92C427.33 163.837 436.797 168.226 447.061 170.7L447.066 170.701C453.306 172.205 460.312 173 467 173V152.998C429.951 152.729 400 122.612 400 85.5C400 48.3876 429.951 18.2706 467 18.0018V0Z" fill="url(#paint28_linear_102_2)"/>
<path d="M467 152.998C429.951 152.729 400 122.612 400 85.5C400 48.3876 429.951 18.2706 467 18.0018V42.0028C443.206 42.2708 424 61.6425 424 85.5C424 109.357 443.206 128.729 467 128.997V152.998Z" fill="url(#paint29_linear_102_2)"/>
<path fill-rule="evenodd" clip-rule="evenodd" d="M424 85.5C424 109.357 443.206 128.729 467 128.997V111C453.193 111 442 99.8071 442 86C442 72.1929 453.193 61 467 61V42.0028C443.206 42.2708 424 61.6425 424 85.5Z" fill="url(#paint30_linear_102_2)"/>
<path d="M467 111C453.193 111 442 99.8071 442 86C442 72.1929 453.193 61 467 61V111Z" fill="url(#paint31_linear_102_2)"/>
<path d="M389.536 726.5L245.5 434C199 355.5 163.6 312.1 40 294.5C85.3333 296.466 182.2 307.009 207 333.449C231.8 359.89 321.581 588.5 389.536 700V726.5Z" fill="#D9DDE2"/>
<path d="M310.5 294.5V315C307.346 315.061 303.846 315.092 300.143 315.125H300.139C273.311 315.364 235.789 315.699 241.5 328C249.055 335.294 280.915 409.503 313.875 486.274L313.877 486.278C344.177 556.853 375.407 629.593 389.536 654.5V700C321.581 588.5 231.8 359.89 207 333.449C199 306.609 272.667 296.3 310.5 294.5Z" fill="#9BA8B1"/>
<path d="M40 294.5H310.5C272.667 296.3 199 306.609 207 333.449C182.2 307.009 85.3333 296.466 40 294.5Z" fill="#EBEFF6"/>
<path fill-rule="evenodd" clip-rule="evenodd" d="M199.274 420.368C222.416 451.402 232.793 467.268 218.315 466.029C225.817 469.939 233.71 473.156 242 475.5C226.96 441.054 224.136 437.564 199 406.5L199.002 406.527C199.54 415.41 199.788 419.502 199.274 420.368Z" fill="#9BA8B1"/>
<path fill-rule="evenodd" clip-rule="evenodd" d="M110 329.5C161.5 340.372 188 380 196 416.5C197.607 419.112 198.569 420.674 199.079 420.538C199.154 420.518 199.218 420.462 199.274 420.368C222.416 451.402 232.793 467.268 218.315 466.029C156.995 434.068 121.814 355.788 110.001 329.502L110 329.5Z" fill="#D9DDE2"/>
<path fill-rule="evenodd" clip-rule="evenodd" d="M267.561 582.162C274.659 585.822 282.136 588.825 290 591C284.806 532.563 264.996 506.354 199.72 471.171C214.48 480.406 244.178 501.16 258.5 526.5C274.053 554.016 269.886 574.853 267.561 582.162Z" fill="#9BA8B1"/>
<path fill-rule="evenodd" clip-rule="evenodd" d="M267.561 582.162C269.885 574.853 274.053 554.016 258.5 526.5C244.178 501.16 214.48 480.406 199.72 471.171C189.596 465.715 178.378 460.042 165.952 454L166.2 454.551C178.575 482.082 211.033 553.006 267.561 582.162Z" fill="#D9DDE2"/>
<path fill-rule="evenodd" clip-rule="evenodd" d="M332.485 670.86C327.871 664.279 319.639 653.115 313.5 648C310.675 645.646 308.54 644.08 306.847 642.839C303.146 640.124 301.558 638.96 299.5 634.5C298.542 632.424 297.839 630.399 297.114 628.312C295.569 623.862 293.924 619.126 289.5 613C284.488 606.06 269.069 592.876 262.274 587.205C249.358 581.353 234.872 576.251 218.983 572C230.659 597.225 289.979 659.121 332.485 670.86Z" fill="#D9DDE2"/>
<path fill-rule="evenodd" clip-rule="evenodd" d="M332.485 670.86C332.657 670.907 332.828 670.954 333 671C333 636.844 307.088 607.509 262.274 587.205C269.069 592.876 284.488 606.06 289.5 613C293.924 619.126 295.569 623.862 297.114 628.312C297.839 630.399 298.542 632.424 299.5 634.5C301.558 638.96 303.146 640.124 306.847 642.839L306.849 642.84C308.542 644.081 310.676 645.647 313.5 648C319.639 653.115 327.871 664.279 332.485 670.86Z" fill="#9BA8B1"/>
<path d="M253.591 649.007L243.701 627C243.769 627.046 243.841 627.092 243.916 627.139C256.108 635.038 282.047 652.342 290 659.5C283.086 655.171 262.902 649.698 253.591 649.007Z" fill="#D9DDE2"/>
<path d="M253.5 631.478C264.65 636.888 281.698 645.16 290 659.5C282.047 652.342 256.108 635.038 243.916 627.139C245.037 627.838 246.85 628.596 248.847 629.431L248.848 629.432C250.365 630.066 251.988 630.744 253.493 631.475L253.498 631.477L253.5 631.478Z" fill="#9BA8B1"/>
<path fill-rule="evenodd" clip-rule="evenodd" d="M389.536 801.5C389.536 699 290 656.5 260.779 665L260.797 665.04C269.119 683.557 286.86 723.016 308 745.5C326.293 764.956 351.645 779.296 370.148 789.761L370.149 789.762L370.752 790.103L370.754 790.104L370.76 790.107C378.627 794.557 385.24 798.297 389.437 801.426L389.536 801.5Z" fill="#9BA8B1"/>
<path fill-rule="evenodd" clip-rule="evenodd" d="M275.387 664.293C282.773 665.909 294.319 669.445 305.5 677C321.543 687.84 322.546 688.903 329.702 696.494C330.798 697.657 332.039 698.972 333.5 700.5C341.078 708.423 343.436 712.786 346.785 718.984C348.297 721.783 350.011 724.956 352.5 729C356.023 734.724 359.873 739.867 363.575 744.812C368.281 751.097 372.748 757.064 376 763.5C380.986 773.369 387.725 795.39 389.536 801.438C389.536 801.458 389.536 801.479 389.536 801.5L389.437 801.426C385.24 798.297 378.628 794.557 370.762 790.108L370.76 790.107L370.754 790.104L370.752 790.103L370.149 789.762L370.148 789.761C351.645 779.296 326.293 764.956 308 745.5C286.86 723.016 269.119 683.557 260.797 665.04L260.779 665C264.582 663.894 269.576 663.651 275.387 664.293Z" fill="#D9DDE2"/>
<path fill-rule="evenodd" clip-rule="evenodd" d="M319.304 795.226L312.237 779.5C315.453 781.454 318.626 783.313 321.659 785.09L321.665 785.094L321.814 785.181C323.967 786.443 326.049 787.663 328.023 788.847C333.596 792.186 338.637 795.113 343.201 797.762L343.388 797.871L343.391 797.873C344.781 798.68 346.127 799.461 347.43 800.22C349.645 802.513 352.001 805.095 354.5 808C375.85 832.826 376.985 840.395 379.938 860.083L380 860.5C381.787 872.413 382.864 882.198 383.443 888.163C362.469 881.21 337.608 834.266 322.057 801.149C321.103 799.118 320.185 797.14 319.304 795.226Z" fill="#D9DDE2"/>
<path fill-rule="evenodd" clip-rule="evenodd" d="M389.536 889C387.552 889.146 385.517 888.85 383.443 888.163C382.864 882.198 381.787 872.413 380 860.5L379.938 860.083C376.985 840.395 375.85 832.826 354.5 808C352.001 805.095 349.645 802.513 347.43 800.22C346.128 799.461 344.782 798.68 343.391 797.873C382.44 820.536 386.374 822.819 389.536 889ZM342.897 797.586C341.28 796.647 339.603 795.674 337.865 794.659C336.799 794.037 335.71 793.4 334.597 792.746C332.492 791.509 330.302 790.213 328.023 788.847C326.158 787.729 324.197 786.578 322.171 785.391C322.058 785.324 321.944 785.257 321.83 785.191L321.665 785.094L321.659 785.09" fill="#9BA8B1"/>
<path fill-rule="evenodd" clip-rule="evenodd" d="M319.304 795.226L312.237 779.5C314.156 783.854 316.543 789.223 319.304 795.226Z" fill="#D1DBE3"/>
<path d="M389.536 951.5L362.347 891C367.231 896.167 377.8 908.2 381 915C384.2 921.8 388.024 942.167 389.536 951.5Z" fill="#D9DDE2"/>
<path d="M389.536 908.5V951.5C388.024 942.167 384.2 921.8 381 915C377.8 908.2 367.231 896.167 362.347 891L389.536 908.5Z" fill="#9BA8B1"/>
<path fill-rule="evenodd" clip-rule="evenodd" d="M406 384.5L406.972 988.57L459.406 1109.5C457.459 1029.66 456.876 898.075 456.221 789.225C455.194 618.569 454.223 457.11 448.5 445.5C431 410 418.833 397.167 406 384.5Z" fill="url(#paint32_linear_102_2)"/>
<path d="M459.5 441L459.406 1109.5C457.459 1029.66 456.876 898.075 456.221 789.225C455.194 618.569 454.223 457.11 448.5 445.5C431 410 418.833 397.167 406 384.5C425.5 395 446.819 423.981 459.5 441Z" fill="#ECEAE0"/>
<path fill-rule="evenodd" clip-rule="evenodd" d="M343.5 351.5C344.683 351.401 346.245 351.263 348.13 351.096C374.916 348.722 467 340.562 467 358.5V410C441 369.6 373.333 354.167 343.5 351.5Z" fill="url(#paint33_linear_102_2)"/>
<path d="M343.5 351.5C343.333 347.833 369 340.3 467 341.5V358.5C467 340.562 374.916 348.722 348.13 351.096C346.245 351.263 344.683 351.401 343.5 351.5Z" fill="#ECEAE0"/>
<path d="M245.5 434L389.536 726.5V801.5C389.536 699 290 656.5 260.779 665L253.591 649.007C262.902 649.698 283.086 655.171 290 659.5C281.698 645.16 264.65 636.888 253.5 631.478L253.498 631.477L253.493 631.475C251.988 630.744 250.365 630.066 248.848 629.432L248.847 629.431C246.85 628.596 245.037 627.838 243.916 627.139L243.701 627L218.983 572C230.706 597.327 290.46 659.623 333 671C333 627 290 591 218.983 572L166.2 454.551C180.129 485.539 219.5 571.5 290 591C284 523.5 258.5 499 165.952 454L110 329.5C123.258 359 165.952 454 242 475.5C226.96 441.054 224.136 437.564 199 406.5C199.598 416.37 199.839 420.336 199.079 420.538C198.569 420.674 197.607 419.112 196 416.5C188 380 161.5 340.372 110 329.5C103.391 324.167 97.6363 319.798 92.5 316.185C91.2477 315.304 90.0321 314.467 88.8499 313.673C70.7574 301.519 60.4807 299.179 45.8056 295.838C43.9491 295.415 42.0221 294.977 40 294.5C163.6 312.1 199 355.5 245.5 434Z" fill="url(#paint34_linear_102_2)"/>
<path d="M260.797 665.04C269.119 683.557 286.86 723.016 308 745.5C326.293 764.956 351.645 779.296 370.148 789.761L370.149 789.762L370.752 790.103L370.754 790.104C378.624 794.555 385.239 798.296 389.437 801.426L389.536 801.5V889C386.374 822.819 382.44 820.536 343.391 797.873L343.388 797.871C338.775 795.193 333.672 792.232 328.023 788.847C326.003 787.636 323.871 786.387 321.665 785.094L321.659 785.09C318.626 783.313 315.453 781.454 312.237 779.5L260.797 665.04Z" fill="url(#paint35_linear_102_2)"/>
<path d="M389.536 908.5L362.347 891L319.304 795.226C320.185 797.14 321.103 799.118 322.057 801.149C339.145 837.539 367.474 890.625 389.536 889V908.5Z" fill="url(#paint36_linear_102_2)"/>
<path d="M497.5 191.82V175.889C489.833 171.056 473.4 161.407 467 161.407V179.376C473 179.389 489.667 187.51 497.5 191.82Z" fill="url(#paint37_linear_102_2)"/>
<path d="M436.5 191.82V175.889C444.167 171.056 460.6 161.407 467 161.407V179.376C461 179.389 444.333 187.51 436.5 191.82Z" fill="url(#paint38_linear_102_2)"/>
</g>
</g>
<defs>
<linearGradient id="paint0_linear_102_2" x1="-69.5" y1="252" x2="934" y2="714" gradientUnits="userSpaceOnUse">
<stop stop-color="#B93C3B"/>
<stop offset="1" stop-color="#88242D"/>
</linearGradient>
<linearGradient id="paint1_linear_102_2" x1="431.5" y1="256.5" x2="467" y2="261" gradientUnits="userSpaceOnUse">
<stop stop-color="#DDDADA"/>
<stop offset="1" stop-color="#F05C57"/>
</linearGradient>
<linearGradient id="paint2_linear_102_2" x1="431.5" y1="256.5" x2="467" y2="261" gradientUnits="userSpaceOnUse">
<stop stop-color="#DDDADA"/>
<stop offset="1" stop-color="#F05C57"/>
</linearGradient>
<linearGradient id="paint3_linear_102_2" x1="431.5" y1="256.5" x2="467" y2="261" gradientUnits="userSpaceOnUse">
<stop stop-color="#DDDADA"/>
<stop offset="1" stop-color="#F05C57"/>
</linearGradient>
<linearGradient id="paint4_linear_102_2" x1="431.5" y1="256.5" x2="467" y2="261" gradientUnits="userSpaceOnUse">
<stop stop-color="#DDDADA"/>
<stop offset="1" stop-color="#F05C57"/>
</linearGradient>
<linearGradient id="paint5_linear_102_2" x1="467" y1="-53" x2="467" y2="1325" gradientUnits="userSpaceOnUse">
<stop stop-color="#343F4A"/>
<stop offset="1" stop-color="#1E1A22"/>
</linearGradient>
<linearGradient id="paint6_linear_102_2" x1="467" y1="-53" x2="467" y2="1325" gradientUnits="userSpaceOnUse">
<stop stop-color="#343F4A"/>
<stop offset="1" stop-color="#1E1A22"/>
</linearGradient>
<linearGradient id="paint7_linear_102_2" x1="467" y1="-52.9999" x2="467" y2="1325" gradientUnits="userSpaceOnUse">
<stop stop-color="#343F4A"/>
<stop offset="1" stop-color="#1E1A22"/>
</linearGradient>
<linearGradient id="paint8_linear_102_2" x1="467" y1="-53.0072" x2="467" y2="1325" gradientUnits="userSpaceOnUse">
<stop stop-color="#343F4A"/>
<stop offset="1" stop-color="#1E1A22"/>
</linearGradient>
<linearGradient id="paint9_linear_102_2" x1="467" y1="-53" x2="467" y2="1325" gradientUnits="userSpaceOnUse">
<stop stop-color="#343F4A"/>
<stop offset="1" stop-color="#1E1A22"/>
</linearGradient>
<linearGradient id="paint10_linear_102_2" x1="467" y1="-53" x2="467" y2="1325" gradientUnits="userSpaceOnUse">
<stop stop-color="#343F4A"/>
<stop offset="1" stop-color="#1E1A22"/>
</linearGradient>
<linearGradient id="paint11_linear_102_2" x1="370.5" y1="27.5" x2="479" y2="100" gradientUnits="userSpaceOnUse">
<stop stop-color="#EDEDEA"/>
<stop offset="1" stop-color="#AA9368"/>
</linearGradient>
<linearGradient id="paint12_linear_102_2" x1="467" y1="-53" x2="467" y2="1325" gradientUnits="userSpaceOnUse">
<stop stop-color="#343F4A"/>
<stop offset="1" stop-color="#1E1A22"/>
</linearGradient>
<linearGradient id="paint13_linear_102_2" x1="-132.858" y1="559" x2="24.7827" y2="842.364" gradientUnits="userSpaceOnUse">
<stop stop-color="#95875F"/>
<stop offset="1" stop-color="#645C42"/>
</linearGradient>
<linearGradient id="paint14_linear_102_2" x1="-56.939" y1="392.5" x2="257.37" y2="251.212" gradientUnits="userSpaceOnUse">
<stop stop-color="#9F8F64"/>
<stop offset="1" stop-color="#93865F"/>
</linearGradient>
<linearGradient id="paint15_linear_102_2" x1="467" y1="-53" x2="467" y2="1325" gradientUnits="userSpaceOnUse">
<stop stop-color="#343F4A"/>
<stop offset="1" stop-color="#1E1A22"/>
</linearGradient>
<linearGradient id="paint16_linear_102_2" x1="467" y1="-53.0001" x2="467" y2="1325" gradientUnits="userSpaceOnUse">
<stop stop-color="#343F4A"/>
<stop offset="1" stop-color="#1E1A22"/>
</linearGradient>
<linearGradient id="paint17_linear_102_2" x1="467" y1="-52.9997" x2="467" y2="1325" gradientUnits="userSpaceOnUse">
<stop stop-color="#343F4A"/>
<stop offset="1" stop-color="#1E1A22"/>
</linearGradient>
<linearGradient id="paint18_linear_102_2" x1="-69.5" y1="252" x2="934" y2="714" gradientUnits="userSpaceOnUse">
<stop stop-color="#B93C3B"/>
<stop offset="1" stop-color="#88242D"/>
</linearGradient>
<linearGradient id="paint19_linear_102_2" x1="431.5" y1="256.5" x2="467" y2="261" gradientUnits="userSpaceOnUse">
<stop stop-color="#DDDADA"/>
<stop offset="1" stop-color="#F05C57"/>
</linearGradient>
<linearGradient id="paint20_linear_102_2" x1="431.5" y1="256.5" x2="467" y2="261" gradientUnits="userSpaceOnUse">
<stop stop-color="#DDDADA"/>
<stop offset="1" stop-color="#F05C57"/>
</linearGradient>
<linearGradient id="paint21_linear_102_2" x1="431.5" y1="256.5" x2="467" y2="261" gradientUnits="userSpaceOnUse">
<stop stop-color="#DDDADA"/>
<stop offset="1" stop-color="#F05C57"/>
</linearGradient>
<linearGradient id="paint22_linear_102_2" x1="431.5" y1="256.5" x2="467" y2="261" gradientUnits="userSpaceOnUse">
<stop stop-color="#DDDADA"/>
<stop offset="1" stop-color="#F05C57"/>
</linearGradient>
<linearGradient id="paint23_linear_102_2" x1="467" y1="-53" x2="467" y2="1325" gradientUnits="userSpaceOnUse">
<stop stop-color="#343F4A"/>
<stop offset="1" stop-color="#1E1A22"/>
</linearGradient>
<linearGradient id="paint24_linear_102_2" x1="467" y1="-53" x2="467" y2="1325" gradientUnits="userSpaceOnUse">
<stop stop-color="#343F4A"/>
<stop offset="1" stop-color="#1E1A22"/>
</linearGradient>
<linearGradient id="paint25_linear_102_2" x1="467" y1="-52.9999" x2="467" y2="1325" gradientUnits="userSpaceOnUse">
<stop stop-color="#343F4A"/>
<stop offset="1" stop-color="#1E1A22"/>
</linearGradient>
<linearGradient id="paint26_linear_102_2" x1="467" y1="-53.0072" x2="467" y2="1325" gradientUnits="userSpaceOnUse">
<stop stop-color="#343F4A"/>
<stop offset="1" stop-color="#1E1A22"/>
</linearGradient>
<linearGradient id="paint27_linear_102_2" x1="467" y1="-53" x2="467" y2="1325" gradientUnits="userSpaceOnUse">
<stop stop-color="#343F4A"/>
<stop offset="1" stop-color="#1E1A22"/>
</linearGradient>
<linearGradient id="paint28_linear_102_2" x1="467" y1="-53" x2="467" y2="1325" gradientUnits="userSpaceOnUse">
<stop stop-color="#343F4A"/>
<stop offset="1" stop-color="#1E1A22"/>
</linearGradient>
<linearGradient id="paint29_linear_102_2" x1="370.5" y1="27.5" x2="479" y2="100" gradientUnits="userSpaceOnUse">
<stop stop-color="#EDEDEA"/>
<stop offset="1" stop-color="#AA9368"/>
</linearGradient>
<linearGradient id="paint30_linear_102_2" x1="467" y1="-53" x2="467" y2="1325" gradientUnits="userSpaceOnUse">
<stop stop-color="#343F4A"/>
<stop offset="1" stop-color="#1E1A22"/>
</linearGradient>
<linearGradient id="paint31_linear_102_2" x1="440.5" y1="76.5" x2="458.5" y2="82.5" gradientUnits="userSpaceOnUse">
<stop stop-color="white"/>
<stop offset="1" stop-color="#DE5D59"/>
</linearGradient>
<linearGradient id="paint32_linear_102_2" x1="102.89" y1="589" x2="127.029" y2="400.808" gradientUnits="userSpaceOnUse">
<stop stop-color="#D4CAAD"/>
<stop offset="1" stop-color="#DAE0D7"/>
</linearGradient>
<linearGradient id="paint33_linear_102_2" x1="313.664" y1="353.5" x2="-45.6753" y2="439.649" gradientUnits="userSpaceOnUse">
<stop stop-color="#EDEEE9"/>
<stop offset="1" stop-color="#D6CDB8"/>
</linearGradient>
<linearGradient id="paint34_linear_102_2" x1="467" y1="-53" x2="467" y2="1325" gradientUnits="userSpaceOnUse">
<stop stop-color="#343F4A"/>
<stop offset="1" stop-color="#1E1A22"/>
</linearGradient>
<linearGradient id="paint35_linear_102_2" x1="467" y1="-53.0001" x2="467" y2="1325" gradientUnits="userSpaceOnUse">
<stop stop-color="#343F4A"/>
<stop offset="1" stop-color="#1E1A22"/>
</linearGradient>
<linearGradient id="paint36_linear_102_2" x1="467" y1="-52.9997" x2="467" y2="1325" gradientUnits="userSpaceOnUse">
<stop stop-color="#343F4A"/>
<stop offset="1" stop-color="#1E1A22"/>
</linearGradient>
<linearGradient id="paint37_linear_102_2" x1="431.5" y1="256.5" x2="467" y2="261" gradientUnits="userSpaceOnUse">
<stop stop-color="#DDDADA"/>
<stop offset="1" stop-color="#F05C57"/>
</linearGradient>
<linearGradient id="paint38_linear_102_2" x1="431.5" y1="256.5" x2="467" y2="261" gradientUnits="userSpaceOnUse">
<stop stop-color="#DDDADA"/>
<stop offset="1" stop-color="#F05C57"/>
</linearGradient>
<clipPath id="clip0_102_2">
<rect width="934" height="1199" fill="white"/>
</clipPath>
</defs>
</svg>
